<svg width="182" height="60" viewBox="0 0 182 60" fill="none" xmlns="http://www.w3.org/2000/svg">
<path d="M18.3242 60.0001C14.8589 60.0001 11.7551 59.1807 8.99708 57.5419C6.24688 55.903 4.07029 53.6675 2.46732 50.8354C0.872206 48.0033 0.0471463 44.8131 0 41.257V10.5092C0 9.47496 0.322166 8.64759 0.966498 8.01115C1.61083 7.38267 2.42017 7.06445 3.39453 7.06445C4.36889 7.06445 5.23323 7.38267 5.86185 8.01115C6.48261 8.63963 6.79692 9.47496 6.79692 10.5092V28.7113C8.35275 26.8258 10.2307 25.3302 12.423 24.2244C14.6232 23.1265 17.0277 22.5696 19.6521 22.5696C22.8895 22.5696 25.8047 23.3891 28.3742 25.0279C30.9515 26.6667 32.9788 28.8942 34.4639 31.7025C35.949 34.5108 36.6955 37.693 36.6955 41.2411C36.6955 44.7893 35.8862 47.9873 34.2675 50.8195C32.6488 53.6516 30.4565 55.8871 27.7063 57.5259C24.9561 59.1648 21.8209 59.9842 18.3163 59.9842L18.3242 60.0001ZM18.3242 53.9301C20.5872 53.9301 22.6066 53.3811 24.3825 52.2753C26.1583 51.1775 27.5648 49.658 28.6099 47.7248C29.655 45.7916 30.1736 43.6357 30.1736 41.2491C30.1736 38.8624 29.655 36.6667 28.6099 34.7733C27.5648 32.8879 26.1583 31.3923 24.3825 30.2864C22.6066 29.1886 20.5872 28.6317 18.3242 28.6317C16.0612 28.6317 14.0967 29.1806 12.2973 30.2864C10.4979 31.3923 9.09137 32.8799 8.06987 34.7733C7.04837 36.6667 6.53761 38.8227 6.53761 41.2491C6.53761 43.6755 7.04837 45.7916 8.06987 47.7248C9.09137 49.658 10.4979 51.1775 12.2973 52.2753C14.0967 53.3732 16.1004 53.9301 18.3242 53.9301Z" fill="black"/>
<path d="M45.3861 8.89421C44.1838 8.89421 43.1545 8.45666 42.2901 7.58156C41.4258 6.70645 40.9936 5.65633 40.9936 4.4471C40.9936 3.23787 41.4258 2.18775 42.2901 1.31265C43.1545 0.43755 44.1917 0 45.3861 0C46.5804 0 47.6177 0.43755 48.482 1.31265C49.3464 2.18775 49.7785 3.23787 49.7785 4.4471C49.7785 5.65633 49.3464 6.70645 48.482 7.58156C47.6177 8.45666 46.5804 8.89421 45.3861 8.89421ZM45.3861 51.7821C44.4117 51.7821 43.5945 51.4559 42.958 50.8036C42.3137 50.1512 41.9915 49.3318 41.9915 48.3453V18.3294C41.9915 17.2952 42.3137 16.4678 42.958 15.8314C43.6024 15.2029 44.4117 14.8847 45.3861 14.8847C46.3604 14.8847 47.2248 15.2029 47.8534 15.8314C48.4741 16.4599 48.7885 17.2952 48.7885 18.3294V48.3374C48.7885 49.3239 48.4741 50.1512 47.8534 50.7956C47.2326 51.448 46.4076 51.7741 45.3861 51.7741V51.7821Z" fill="black"/>
<path d="M71.9136 44.0891C68.582 44.0891 65.6432 43.2936 63.0894 41.6945C60.5357 40.1035 58.5241 37.8998 57.0626 35.0836C55.601 32.2753 54.8624 29.0454 54.8624 25.4097C54.8624 21.7741 55.6482 18.4726 57.2276 15.6643C58.807 12.856 60.9678 10.6523 63.718 9.05329C66.4682 7.46219 69.6427 6.65869 73.2416 6.65869C76.8404 6.65869 79.9442 7.45424 82.7023 9.05329C85.4525 10.6523 87.6212 12.856 89.1927 15.6643C90.7643 18.4726 91.5579 21.7184 91.5579 25.4097H87.629C87.629 29.0533 86.9533 32.2753 85.6018 35.0836C84.2502 37.8918 82.3958 40.0955 80.0385 41.6945C77.6812 43.2936 74.9781 44.0891 71.9136 44.0891ZM73.1159 59.125C69.9649 59.125 67.0104 58.4965 64.2602 57.2395C61.51 55.9826 59.1763 54.1369 57.2669 51.7105C56.6854 50.9467 56.4811 50.1592 56.6304 49.3477C56.7875 48.5362 57.2197 47.8839 57.9269 47.3907C58.7284 46.8497 59.5613 46.6747 60.4257 46.8497C61.29 47.0247 61.9893 47.4782 62.5237 48.2021C63.7259 49.7296 65.2346 50.9229 67.0497 51.7741C68.8727 52.6254 70.9314 53.0549 73.2416 53.0549C75.371 53.0549 77.3354 52.5378 79.1349 51.5036C80.9343 50.4694 82.3644 48.942 83.433 46.9213C84.5017 44.9006 85.0281 42.4264 85.0281 39.5068V29.9284L87.2283 23.9936L91.5579 25.4097V39.9762C91.5579 43.5243 90.78 46.7542 89.2242 49.65C87.6683 52.5458 85.5075 54.8529 82.7337 56.5633C79.9599 58.2737 76.7461 59.125 73.108 59.125H73.1159ZM73.2494 38.0191C75.5596 38.0191 77.6026 37.4781 79.3785 36.4042C81.1543 35.3222 82.5451 33.8425 83.543 31.9571C84.541 30.0716 85.0439 27.8918 85.0439 25.4177C85.0439 22.9435 84.541 20.7558 83.543 18.8465C82.5451 16.9371 81.1543 15.4415 79.3785 14.3596C77.6026 13.2776 75.5596 12.7446 73.2494 12.7446C70.9393 12.7446 68.8963 13.2856 67.1204 14.3596C65.3446 15.4415 63.9459 16.9371 62.9244 18.8465C61.9029 20.7558 61.3922 22.9515 61.3922 25.4177C61.3922 27.8839 61.9029 30.0716 62.9244 31.9571C63.9459 33.8425 65.3446 35.3302 67.1204 36.4042C68.8963 37.4861 70.9393 38.0191 73.2494 38.0191Z" fill="black"/>
<path d="M148.691 59.5229C147.717 59.5229 146.9 59.1967 146.263 58.5444C145.627 57.892 145.297 57.0726 145.297 56.0861V25.3383C145.336 21.7901 146.161 18.592 147.764 15.7599C149.359 12.9278 151.536 10.6923 154.294 9.05345C157.044 7.41463 160.156 6.59521 163.621 6.59521C167.086 6.59521 170.261 7.41463 173.011 9.05345C175.761 10.6923 177.953 12.9278 179.572 15.7599C181.191 18.592 182 21.7822 182 25.3383C182 28.8944 181.254 32.0686 179.768 34.8769C178.283 37.6852 176.248 39.9127 173.679 41.5515C171.101 43.1903 168.194 44.0098 164.957 44.0098C162.34 44.0098 159.928 43.4608 157.728 42.355C155.527 41.2572 153.657 39.7615 152.101 37.8681V56.0702C152.101 57.0567 151.787 57.8761 151.166 58.5285C150.546 59.1808 149.721 59.507 148.699 59.507L148.691 59.5229ZM163.613 37.9477C165.876 37.9477 167.895 37.3988 169.671 36.293C171.447 35.1951 172.854 33.6836 173.899 31.7743C174.944 29.8649 175.462 27.717 175.462 25.3383C175.462 22.9596 174.944 20.74 173.899 18.8307C172.854 16.9214 171.447 15.4178 169.671 14.312C167.895 13.2142 165.876 12.6573 163.613 12.6573C161.35 12.6573 159.386 13.2062 157.586 14.312C155.787 15.4178 154.38 16.9214 153.359 18.8307C152.337 20.74 151.826 22.9119 151.826 25.3383C151.826 27.7647 152.337 29.8649 153.359 31.7743C154.38 33.6836 155.787 35.1871 157.586 36.293C159.386 37.3908 161.389 37.9477 163.613 37.9477Z" fill="black"/>
<path d="M126.258 12.7287C125.588 12.7287 124.918 12.4704 124.413 11.9449L119.044 6.44899L113.675 11.9449C112.657 12.9871 111.004 12.9871 109.986 11.9449C108.968 10.9027 108.968 9.2103 109.986 8.16813L117.2 0.783855C117.687 0.285038 118.357 0 119.044 0C119.74 0 120.402 0.285038 120.889 0.783855L128.103 8.16813C129.121 9.2103 129.121 10.9027 128.103 11.9449C127.589 12.4704 126.928 12.7287 126.258 12.7287Z" fill="black"/>
<path d="M119.044 38.1863C106.268 38.1863 95.8641 27.6371 95.8641 14.682V5.60538C95.8641 3.82707 97.2846 2.38672 99.0383 2.38672C100.792 2.38672 102.213 3.82707 102.213 5.60538V14.682C102.213 24.0966 109.767 31.749 119.044 31.749C128.321 31.749 135.876 24.0886 135.876 14.682V5.60538C135.876 3.82707 137.296 2.38672 139.05 2.38672C140.804 2.38672 142.225 3.82707 142.225 5.60538V14.682C142.225 27.6452 131.821 38.1863 119.044 38.1863Z" fill="black"/>
</svg>
